<?xml version="1.0" standalone="no"?>
<!DOCTYPE svg PUBLIC "-//W3C//DTD SVG 20010904//EN"
 "http://www.w3.org/TR/2001/REC-SVG-20010904/DTD/svg10.dtd">
<svg version="1.0" xmlns="http://www.w3.org/2000/svg"
 width="150.000000pt" height="150.000000pt" viewBox="0 0 150.000000 150.000000"
 preserveAspectRatio="xMidYMid meet">

<g transform="translate(0.000000,150.000000) scale(0.100000,-0.100000)"
fill="#000000" stroke="none">
<path d="M883 975 c0 -8 4 -12 9 -9 5 3 6 10 3 15 -9 13 -12 11 -12 -6z"/>
<path d="M1050 970 c-9 -6 -10 -10 -3 -10 6 0 15 5 18 10 8 12 4 12 -15 0z"/>
<path d="M842 944 c-7 -8 -8 -14 -3 -14 10 0 25 19 20 25 -2 1 -10 -3 -17 -11z"/>
<path d="M235 818 l0 -113 50 2 c28 0 64 2 81 2 25 1 33 6 36 26 6 30 -3 32
-27 5 -10 -11 -28 -20 -41 -20 -19 0 -24 7 -30 35 -7 39 -1 130 11 158 6 15 1
17 -36 17 l-44 0 0 -112z"/>
<path d="M640 858 c0 -5 4 -8 8 -8 5 0 17 -15 27 -34 18 -33 18 -34 -3 -70
-21 -35 -21 -36 -2 -36 15 0 20 7 20 25 0 28 19 35 21 8 1 -10 1 -21 0 -25 0
-5 6 -8 15 -8 16 0 15 -9 -7 -68 -10 -27 -38 -40 -49 -22 -6 9 -12 6 -25 -14
-9 -14 -20 -24 -24 -22 -4 3 -8 -7 -9 -22 -2 -26 -1 -25 19 9 17 28 27 36 49
35 26 -1 28 -4 24 -36 -2 -19 3 -9 11 23 22 86 41 115 73 109 l25 -5 -33 41
c-31 39 -32 43 -19 74 7 18 18 36 23 40 6 4 1 8 -11 8 -13 0 -22 -3 -22 -7 1
-5 1 -18 0 -31 -1 -30 -21 -18 -21 13 0 20 -6 23 -45 27 -25 2 -45 0 -45 -4z"/>
<path d="M1116 813 c-6 -14 -5 -15 5 -6 7 7 10 15 7 18 -3 3 -9 -2 -12 -12z"/>
<path d="M955 770 c-67 -27 -124 -177 -83 -218 25 -25 78 -11 127 32 l24 21
-6 -50 c-4 -34 -3 -42 3 -25 7 21 8 17 9 -22 1 -28 -3 -48 -10 -48 -5 0 -7 -5
-3 -11 14 -23 26 24 21 81 -5 57 -5 57 29 74 l35 16 -7 -50 c-9 -65 10 -67 51
-5 17 24 33 45 38 45 4 0 7 9 7 20 0 10 8 24 18 30 11 7 12 10 2 7 -8 -2 -24
-20 -34 -40 -11 -20 -32 -52 -48 -69 l-29 -33 6 48 c10 72 31 117 58 118 17 1
18 2 4 6 -13 3 -16 11 -12 26 6 20 5 20 -14 -3 -11 -14 -21 -34 -21 -45 0 -28
-10 -40 -47 -59 -43 -22 -46 -21 -28 13 12 23 12 31 2 37 -6 4 -9 4 -5 -1 11
-12 -29 -63 -72 -91 -24 -16 -49 -24 -67 -22 -26 3 -28 7 -31 48 -4 57 31 127
77 154 28 16 35 17 43 5 8 -12 9 -12 6 0 -5 19 -18 22 -43 11z"/>
<path d="M584 748 c-35 -40 -69 -90 -107 -160 -20 -36 -42 -69 -47 -71 -6 -3
-5 -4 2 -3 7 1 31 33 53 69 36 61 43 67 65 62 14 -4 28 -12 32 -18 4 -7 8 1 8
18 0 21 -3 26 -9 16 -5 -8 -16 -11 -30 -6 -21 6 -21 7 11 51 17 24 33 44 34
44 2 0 1 -17 -2 -37 -4 -34 -3 -35 6 -13 6 13 10 35 8 48 l-3 24 -21 -24z"/>
<path d="M1072 731 c-12 -21 -22 -43 -22 -47 1 -5 10 8 21 29 11 20 24 37 29
37 6 0 10 5 10 10 0 21 -17 8 -38 -29z"/>
<path d="M975 699 c-4 -6 -5 -12 -2 -15 2 -3 7 2 10 11 7 17 1 20 -8 4z"/>
<path d="M1075 690 c-3 -5 -1 -10 4 -10 6 0 11 5 11 10 0 6 -2 10 -4 10 -3 0
-8 -4 -11 -10z"/>
<path d="M626 625 c-9 -26 -7 -32 5 -12 6 10 9 21 6 23 -2 3 -7 -2 -11 -11z"/>
<path d="M751 576 c-17 -24 -36 -47 -43 -49 -7 -3 -8 -6 -2 -6 12 -1 43 31 69
72 28 44 9 31 -24 -17z"/>
<path d="M1224 602 c-17 -9 -39 -28 -49 -41 -10 -13 -13 -21 -7 -17 7 4 12 2
12 -3 0 -6 -7 -11 -16 -11 -8 0 -12 -5 -9 -10 8 -14 35 6 35 25 0 8 17 27 37
44 42 35 42 37 -3 13z"/>
<path d="M571 584 c0 -11 3 -14 6 -6 3 7 2 16 -1 19 -3 4 -6 -2 -5 -13z"/>
<path d="M581 549 c0 -9 6 -22 14 -29 10 -9 15 -9 15 -1 0 6 -4 11 -9 11 -5 0
-12 8 -14 18 -4 14 -5 14 -6 1z"/>
</g>
</svg>
